<?xml version="1.0" encoding="UTF-8"?>
<svg id="uuid-2ec9a9ec-c373-44e8-a0a4-98d0ec712aa1" xmlns="http://www.w3.org/2000/svg" viewBox="0, 0, 400,400">
    <g id="svgg">
        <path id="uuid-41a19d5c-3322-4163-8b18-567cc2ccbc4e" d="M0.000 200.000 L 0.000 400.000 200.000 400.000 L 400.000 400.000 400.000 200.000 L 400.000 0.000 200.000 0.000 L 0.000 0.000 0.000 200.000 M110.412 112.900 C 110.426 154.440,110.670 159.047,113.570 172.517 C 114.931 178.840,120.077 190.773,122.522 193.277 C 122.803 193.565,123.295 194.180,123.616 194.644 C 126.994 199.525,134.678 205.411,142.600 209.185 C 148.362 211.930,151.791 213.248,156.200 214.414 C 161.805 215.895,163.975 216.391,168.400 217.202 C 174.234 218.271,182.822 219.312,183.145 218.988 C 183.285 218.848,183.446 186.978,183.503 148.167 L 183.607 77.600 199.803 77.600 L 216.000 77.600 216.000 148.176 C 216.000 196.530,216.131 218.834,216.415 219.009 C 217.170 219.476,229.634 217.786,236.000 216.354 C 239.428 215.583,246.769 213.361,249.000 212.419 C 254.367 210.153,255.469 209.620,259.200 207.481 C 272.666 199.763,280.712 188.935,285.118 172.600 C 285.513 171.135,285.921 169.394,286.616 166.200 C 286.962 164.612,287.561 160.904,288.070 157.200 C 288.313 155.436,288.589 138.456,288.741 116.000 L 289.000 77.800 305.300 77.696 L 321.600 77.591 321.600 116.181 C 321.600 139.579,321.439 156.391,321.190 158.886 C 320.078 170.056,319.245 174.788,316.806 183.800 C 316.197 186.050,314.740 190.178,312.762 195.261 C 309.137 204.574,300.001 216.896,291.800 223.532 C 290.260 224.779,288.910 225.903,288.800 226.031 C 288.480 226.404,282.676 230.254,280.754 231.368 C 277.935 233.002,272.033 235.831,268.500 237.241 C 268.005 237.438,267.195 237.772,266.700 237.983 C 256.858 242.174,238.992 245.460,221.700 246.259 L 216.000 246.522 216.000 284.861 L 216.000 323.200 199.802 323.200 L 183.604 323.200 183.502 284.900 L 183.400 246.600 181.200 246.516 C 177.560 246.377,167.641 245.610,163.800 245.171 C 157.615 244.464,150.471 243.217,145.500 241.975 C 141.363 240.941,135.946 239.368,134.600 238.809 C 134.160 238.626,132.270 237.886,130.400 237.164 C 110.337 229.418,94.377 213.803,86.269 193.987 C 85.867 193.004,85.379 191.840,85.186 191.400 C 84.719 190.340,82.802 184.569,82.329 182.800 C 82.123 182.030,81.786 180.770,81.579 180.000 C 81.079 178.142,80.169 173.622,79.645 170.400 C 79.413 168.970,79.009 166.540,78.748 165.000 C 78.260 162.128,77.698 79.363,78.158 78.165 C 78.340 77.691,80.965 77.600,94.387 77.600 L 110.400 77.600 110.412 112.900 " stroke="none" fill="#00ffff" fill-rule="evenodd"></path>
        <path id="uuid-208c55c9-6ac0-45fb-9896-7ccd0e8bdbe2" d="M78.158 78.165 C 77.698 79.363,78.260 162.128,78.748 165.000 C 79.009 166.540,79.413 168.970,79.645 170.400 C 80.169 173.622,81.079 178.142,81.579 180.000 C 81.786 180.770,82.123 182.030,82.329 182.800 C 82.802 184.569,84.719 190.340,85.186 191.400 C 85.379 191.840,85.867 193.004,86.269 193.987 C 94.377 213.803,110.337 229.418,130.400 237.164 C 132.270 237.886,134.160 238.626,134.600 238.809 C 135.454 239.164,140.022 240.548,142.500 241.203 C 148.112 242.687,149.957 243.068,157.900 244.380 C 162.740 245.179,174.539 246.261,181.200 246.516 L 183.400 246.600 183.502 284.900 L 183.604 323.200 199.802 323.200 L 216.000 323.200 216.000 284.861 L 216.000 246.522 221.700 246.259 C 238.992 245.460,256.858 242.174,266.700 237.983 C 267.195 237.772,268.005 237.438,268.500 237.241 C 272.033 235.831,277.935 233.002,280.754 231.368 C 282.676 230.254,288.480 226.404,288.800 226.031 C 288.910 225.903,290.260 224.779,291.800 223.532 C 300.001 216.896,309.137 204.574,312.762 195.261 C 314.740 190.178,316.197 186.050,316.806 183.800 C 319.245 174.788,320.078 170.056,321.190 158.886 C 321.439 156.391,321.600 139.579,321.600 116.181 L 321.600 77.591 305.300 77.696 L 289.000 77.800 288.741 116.000 C 288.589 138.456,288.313 155.436,288.070 157.200 C 287.561 160.904,286.962 164.612,286.616 166.200 C 285.921 169.394,285.513 171.135,285.118 172.600 C 280.712 188.935,272.666 199.763,259.200 207.481 C 255.469 209.620,254.367 210.153,249.000 212.419 C 246.769 213.361,239.428 215.583,236.000 216.354 C 229.634 217.786,217.170 219.476,216.415 219.009 C 216.131 218.834,216.000 196.530,216.000 148.176 L 216.000 77.600 199.803 77.600 L 183.607 77.600 183.503 148.167 C 183.446 186.978,183.285 218.848,183.145 218.988 C 182.822 219.312,174.234 218.271,168.400 217.202 C 163.975 216.391,161.805 215.895,156.200 214.414 C 151.791 213.248,148.362 211.930,142.600 209.185 C 134.678 205.411,126.994 199.525,123.616 194.644 C 123.295 194.180,122.803 193.565,122.522 193.277 C 120.077 190.773,114.931 178.840,113.570 172.517 C 110.670 159.047,110.426 154.440,110.412 112.900 L 110.400 77.600 94.387 77.600 C 80.965 77.600,78.340 77.691,78.158 78.165 " stroke="none" fill="#040404" fill-rule="evenodd"></path>
    </g>
</svg>